<svg xmlns="http://www.w3.org/2000/svg" xmlns:xlink="http://www.w3.org/1999/xlink" id="Layer_1" data-name="Layer 1" viewBox="0 0 1192.87 371.75"><defs><style> .cls-1 { fill: #3f3e3d; } .cls-2 { fill: url(#Unbenannter_Verlauf_11); } .cls-3 { fill: url(#Unbenannter_Verlauf_11-2); } .cls-4 { fill: url(#Unbenannter_Verlauf_11-3); } .cls-5 { fill: #055da9; } </style><linearGradient id="Unbenannter_Verlauf_11" data-name="Unbenannter Verlauf 11" x1="104.8" y1="431.44" x2="283.68" y2="110.17" gradientUnits="userSpaceOnUse"><stop offset="0" stop-color="#0f89cb"></stop><stop offset="0.31" stop-color="#0f89cb"></stop><stop offset="0.67" stop-color="#055da9"></stop><stop offset="1" stop-color="#233a84"></stop></linearGradient><linearGradient id="Unbenannter_Verlauf_11-2" x1="82.28" y1="418.91" x2="261.16" y2="97.63" xlink:href="#Unbenannter_Verlauf_11"></linearGradient><linearGradient id="Unbenannter_Verlauf_11-3" x1="162.6" y1="463.63" x2="341.48" y2="142.35" xlink:href="#Unbenannter_Verlauf_11"></linearGradient></defs><g><path class="cls-1" d="M591.56,410.51v-31.1h5v31.1Z" transform="translate(-37.88 -52.43)"></path><path class="cls-1" d="M601.87,383.9v-4.49h22.69v4.49H615.8v26.61h-5.08V383.9Z" transform="translate(-37.88 -52.43)"></path><path class="cls-1" d="M626.29,400.52V396h13.57v4.49Z" transform="translate(-37.88 -52.43)"></path><path class="cls-1" d="M655.43,383.31c-3.84,0-5.77,1.35-5.77,4.05a3.27,3.27,0,0,0,1.37,3,26.28,26.28,0,0,0,6,2.18q4.65,1.29,6.56,3.08t1.91,5.65q0,4.9-2.79,7.34a11.21,11.21,0,0,1-7.61,2.43,45.46,45.46,0,0,1-8.53-.91l-1.64-.32.5-4a77.94,77.94,0,0,0,9.35.82c3.76,0,5.63-1.67,5.63-5a3.32,3.32,0,0,0-1.27-2.88,19.35,19.35,0,0,0-5.72-2,15.52,15.52,0,0,1-6.63-3.07q-2.17-1.95-2.17-6.17a7.63,7.63,0,0,1,2.74-6.38q2.75-2.14,7.61-2.15a50.28,50.28,0,0,1,8.26.81l1.59.28-.41,4.08C660.18,383.56,657.19,383.31,655.43,383.31Z" transform="translate(-37.88 -52.43)"></path><path class="cls-1" d="M672.05,410.51v-31.1h19.61v4.4H677.08v8.81h11.85V397H677.08v9.08h14.58v4.45Z" transform="translate(-37.88 -52.43)"></path><path class="cls-1" d="M708.41,411q-6.81,0-9.24-3.77t-2.43-12.4c0-5.74.82-9.84,2.45-12.27s4.71-3.66,9.22-3.66a39.17,39.17,0,0,1,8.89,1.14l-.18,4.08a47,47,0,0,0-8.17-.72q-4.08,0-5.54,2.42c-1,1.62-1.45,4.67-1.45,9.13s.47,7.5,1.41,9.12,2.77,2.43,5.49,2.43a51.7,51.7,0,0,0,8.26-.68l.14,4.18A42.87,42.87,0,0,1,708.41,411Z" transform="translate(-37.88 -52.43)"></path><path class="cls-1" d="M728.56,400.56q0,6,6.36,6t6.35-6V379.41h5.08v21.06q0,5.5-2.88,8T734.89,411q-5.7,0-8.55-2.52t-2.86-8V379.41h5.08Z" transform="translate(-37.88 -52.43)"></path><path class="cls-1" d="M759.38,399.43v11.08h-5v-31.1h11.81q10.53,0,10.53,9.9,0,6.63-5.09,9l5.13,12.21h-5.54l-4.49-11.08Zm12.12-10.08q0-5.58-5.35-5.58h-6.77v11.3h6.86a4.85,4.85,0,0,0,4-1.56A6.4,6.4,0,0,0,771.5,389.35Z" transform="translate(-37.88 -52.43)"></path><path class="cls-1" d="M783.49,410.51v-31.1h5v31.1Z" transform="translate(-37.88 -52.43)"></path><path class="cls-1" d="M793.79,383.9v-4.49h22.7v4.49h-8.76v26.61h-5.09V383.9Z" transform="translate(-37.88 -52.43)"></path><path class="cls-1" d="M833.19,410.51h-5.08V397.7l-9.76-18.29H824l6.59,13.35,6.62-13.35h5.63l-9.67,18.29Z" transform="translate(-37.88 -52.43)"></path><path class="cls-1" d="M858.84,410.51v-31.1h8.76l6.95,24.29,6.94-24.29h8.81v31.1h-5.09V385h-.68l-7.35,24.25h-5.27L864.56,385h-.68v25.52Z" transform="translate(-37.88 -52.43)"></path><path class="cls-1" d="M898.51,410.51v-31.1h19.61v4.4H903.55v8.81H915.4V397H903.55v9.08h14.57v4.45Z" transform="translate(-37.88 -52.43)"></path><path class="cls-1" d="M924.71,410.51v-31.1h19.61v4.4H929.74v8.81h11.85V397H929.74v9.08h14.58v4.45Z" transform="translate(-37.88 -52.43)"></path><path class="cls-1" d="M947.9,383.9v-4.49h22.7v4.49h-8.76v26.61h-5.09V383.9Z" transform="translate(-37.88 -52.43)"></path><path class="cls-1" d="M985,383.31q-5.78,0-5.77,4.05a3.29,3.29,0,0,0,1.36,3,26.62,26.62,0,0,0,6,2.18q4.65,1.29,6.56,3.08t1.91,5.65q0,4.9-2.8,7.34a11.17,11.17,0,0,1-7.6,2.43,45.46,45.46,0,0,1-8.53-.91l-1.64-.32.5-4a77.78,77.78,0,0,0,9.35.82c3.76,0,5.63-1.67,5.63-5a3.32,3.32,0,0,0-1.27-2.88,19.35,19.35,0,0,0-5.72-2,15.52,15.52,0,0,1-6.63-3.07q-2.18-1.95-2.18-6.17a7.63,7.63,0,0,1,2.75-6.38q2.75-2.14,7.61-2.15a50.38,50.38,0,0,1,8.26.81l1.59.28L994,384C989.74,383.56,986.74,383.31,985,383.31Z" transform="translate(-37.88 -52.43)"></path><path class="cls-1" d="M1023.12,411q-6.81,0-9.24-3.77t-2.43-12.4c0-5.74.82-9.84,2.45-12.27s4.71-3.66,9.22-3.66a39.25,39.25,0,0,1,8.9,1.14l-.19,4.08a46.9,46.9,0,0,0-8.17-.72c-2.72,0-4.57.81-5.53,2.42s-1.46,4.67-1.46,9.13.47,7.5,1.41,9.12,2.77,2.43,5.49,2.43a51.61,51.61,0,0,0,8.26-.68L1032,410A42.87,42.87,0,0,1,1023.12,411Z" transform="translate(-37.88 -52.43)"></path><path class="cls-1" d="M1043.27,400.56q0,6,6.36,6t6.35-6V379.41h5.09v21.06q0,5.5-2.88,8t-8.58,2.52q-5.7,0-8.56-2.52t-2.86-8V379.41h5.08Z" transform="translate(-37.88 -52.43)"></path><path class="cls-1" d="M1074.1,399.43v11.08h-5v-31.1h11.8q10.53,0,10.53,9.9,0,6.63-5.08,9l5.13,12.21h-5.54l-4.5-11.08Zm12.12-10.08q0-5.58-5.36-5.58h-6.76v11.3H1081a4.83,4.83,0,0,0,4-1.56A6.4,6.4,0,0,0,1086.22,389.35Z" transform="translate(-37.88 -52.43)"></path><path class="cls-1" d="M1098.2,410.51v-31.1h5v31.1Z" transform="translate(-37.88 -52.43)"></path><path class="cls-1" d="M1132.63,407.19q-2.79,3.81-9.83,3.82t-9.85-3.84q-2.81-3.84-2.81-12.05t2.83-12.21q2.85-4,9.83-4t9.81,4q2.81,4,2.81,12.24T1132.63,407.19Zm-15.73-3.27q1.55,2.68,5.9,2.68t5.88-2.63q1.52-2.64,1.52-8.83t-1.56-9c-1.05-1.88-3-2.82-5.84-2.82s-4.79.94-5.85,2.82-1.59,4.86-1.59,9S1115.87,402.14,1116.9,403.92Z" transform="translate(-37.88 -52.43)"></path><path class="cls-1" d="M1151.49,383.31q-5.76,0-5.76,4.05a3.27,3.27,0,0,0,1.36,3,26.48,26.48,0,0,0,6,2.18q4.65,1.29,6.56,3.08t1.91,5.65q0,4.9-2.79,7.34a11.2,11.2,0,0,1-7.61,2.43,45.54,45.54,0,0,1-8.53-.91l-1.64-.32.5-4a77.91,77.91,0,0,0,9.36.82q5.63,0,5.62-5a3.32,3.32,0,0,0-1.27-2.88q-1.26-.93-5.72-2a15.42,15.42,0,0,1-6.62-3.07c-1.46-1.3-2.18-3.36-2.18-6.17a7.63,7.63,0,0,1,2.74-6.38q2.74-2.14,7.61-2.15a50.28,50.28,0,0,1,8.26.81l1.59.28-.41,4.08C1156.24,383.56,1153.25,383.31,1151.49,383.31Z" transform="translate(-37.88 -52.43)"></path><path class="cls-1" d="M1168.11,410.51v-31.1h5v31.1Z" transform="translate(-37.88 -52.43)"></path><path class="cls-1" d="M1178.41,383.9v-4.49h22.7v4.49h-8.76v26.61h-5.09V383.9Z" transform="translate(-37.88 -52.43)"></path><path class="cls-1" d="M1217.81,410.51h-5.08V397.7L1203,379.41h5.67l6.58,13.35,6.63-13.35h5.63l-9.67,18.29Z" transform="translate(-37.88 -52.43)"></path></g><g><path class="cls-2" d="M183.81,265.93a30.6,30.6,0,1,0-21.19,0V402.5a113.48,113.48,0,0,1-25.89-5.5v22.18a134.78,134.78,0,0,0,36.48,5q5.35,0,10.6-.41Zm-10.6-19.29a9.42,9.42,0,1,1,9.42-9.41A9.42,9.42,0,0,1,173.21,246.64Z" transform="translate(-37.88 -52.43)"></path><path class="cls-3" d="M304.33,184.07c-2.05-1.55-51.15-37.83-131.12-37.83a253.38,253.38,0,0,0-67.47,9V141.09a67.46,67.46,0,0,1,134.46-7.93c7.75,1.93,15,4.09,21.63,6.38a88.64,88.64,0,0,0-177.27,1.55v21.07c-26.32,10-41.35,21.07-42.46,21.91l-4.22,3.18v101.6a135.5,135.5,0,0,0,77.67,122.41V317.75a30.6,30.6,0,1,0-21.18,0v53.57a113.82,113.82,0,0,1-35.31-82.47v-90.7c12.79-8.09,53.94-30.73,114.15-30.73,59.91,0,101.31,22.68,114.16,30.76v90.67A113.43,113.43,0,0,1,273.16,344h.08v36a134.78,134.78,0,0,0,35.31-91.06V187.25ZM105,279.63A9.42,9.42,0,1,1,95.54,289,9.42,9.42,0,0,1,105,279.63Z" transform="translate(-37.88 -52.43)"></path><path class="cls-4" d="M205,398.49v21.92a134.93,134.93,0,0,0,47.07-21.63v-81a30.6,30.6,0,1,0-21.18,0v69.58A113.84,113.84,0,0,1,205,398.49Zm36.48-118.86a9.42,9.42,0,1,1-9.41,9.41A9.43,9.43,0,0,1,241.47,279.63Z" transform="translate(-37.88 -52.43)"></path></g><g><path class="cls-5" d="M451.14,217.55Q425.27,214,413.63,214t-16.12,2.74q-4.5,2.75-4.49,8.66t4.93,8.34q4.94,2.41,23.25,5.59t26,10q7.67,6.81,7.67,24.13T443.8,298.93Q432.72,307,411.44,307q-13.38,0-33.78-3.73l-6.8-1.09.88-20q26.33,3.51,37.95,3.51t16.56-2.86q4.94-2.85,4.93-9.43t-4.71-9.1q-4.73-2.52-22.6-5.49t-26.21-9.32q-8.34-6.36-8.33-23.25t11.51-25.23q11.52-8.33,29.5-8.33,14,0,34.44,3.51l6.8,1.31Z" transform="translate(-37.88 -52.43)"></path><path class="cls-5" d="M558.6,284.89l6.39-.66.45,17.77q-26,5-46.08,5Q494,307,483,293.66t-11.07-42.77q0-58.35,49.51-58.35,47.9,0,47.9,50.23l-1.59,17.11H497q.23,13.61,6.16,20t22.12,6.36Q541.49,286.2,558.6,284.89Zm-13.69-43.43q0-16.25-5.36-22.71t-18.13-6.47q-12.78,0-18.6,6.8t-6,22.38Z" transform="translate(-37.88 -52.43)"></path><path class="cls-5" d="M632.57,192.54A146.21,146.21,0,0,1,660,195.61l5.49,1.1-.88,18.86q-17.33-1.75-25.66-1.75-16.68,0-22.38,7.45t-5.7,28.08q0,20.63,5.48,28.52t22.81,7.9L664.82,284l.66,19.08q-22.15,4-33.34,4-25,0-35.21-13.49t-10.2-44.2q0-30.71,10.75-43.76T632.57,192.54Z" transform="translate(-37.88 -52.43)"></path><path class="cls-5" d="M753.87,195h23.69V304.63H753.87v-6.8q-16,9.21-29.61,9.21-22.59,0-30.27-12.17t-7.68-42.67V195h23.91v57.47q0,19.74,3.29,26.54t15.36,6.81a52.94,52.94,0,0,0,21.71-4.39l3.29-1.32Z" transform="translate(-37.88 -52.43)"></path><path class="cls-5" d="M805.42,304.63V195h23.69v13.16Q847.75,196,866.4,192.54v23.91q-18.87,3.74-32.24,9.65l-4.83,2v76.56Z" transform="translate(-37.88 -52.43)"></path><path class="cls-5" d="M874.74,176.31V151.08h23.91v25.23Zm0,128.32V195h23.91V304.63Z" transform="translate(-37.88 -52.43)"></path><path class="cls-1" d="M928.15,206.8q11.29-14.27,37.62-14.26t37.62,14.26q11.29,14.25,11.29,42.77t-11,43q-11,14.49-38,14.48t-37.95-14.48q-11-14.47-11-43T928.15,206.8ZM946,278.09q5,8.78,19.74,8.77t19.74-8.77q5-8.77,5-28.74t-5.38-28.29q-5.37-8.34-19.41-8.34t-19.41,8.34Q941,229.39,941,249.35T946,278.09Z" transform="translate(-37.88 -52.43)"></path><path class="cls-1" d="M1103.74,195h23.69V304.63h-23.69v-6.8q-16,9.21-29.61,9.21-22.59,0-30.27-12.17t-7.68-42.67V195h23.91v57.47q0,19.74,3.29,26.54t15.36,6.81a52.94,52.94,0,0,0,21.71-4.39l3.29-1.32Z" transform="translate(-37.88 -52.43)"></path><path class="cls-1" d="M1227,217.55q-25.89-3.51-37.51-3.51t-16.12,2.74q-4.5,2.75-4.5,8.66t4.94,8.34q4.93,2.41,23.25,5.59t26,10q7.68,6.81,7.68,24.13t-11.08,25.45Q1208.6,307,1187.32,307q-13.38,0-33.78-3.73l-6.8-1.09.87-20q26.33,3.51,38,3.51t16.56-2.86q4.94-2.85,4.94-9.43t-4.72-9.1q-4.71-2.52-22.59-5.49t-26.21-9.32q-8.34-6.36-8.34-23.25t11.52-25.23q11.51-8.33,29.5-8.33,14,0,34.44,3.51l6.8,1.31Z" transform="translate(-37.88 -52.43)"></path></g><rect class="cls-1" x="553.68" y="280.43" width="636.17" height="13.35"></rect></svg>