<svg width="82" height="99" viewBox="0 0 82 99" fill="none" xmlns="http://www.w3.org/2000/svg">
<path d="M63.5323 15.4272C58.9234 12.5113 57.7778 16.3223 58.0336 18.1126C58.1359 19.2379 58.5877 20.8833 58.8008 21.5653C58.8008 22.3326 67.6244 36.9106 57.1384 48.4196C46.6524 59.9286 42.8161 54.4299 46.6524 44.4554C49.7215 36.4758 52.5348 32.2644 53.5578 31.1561C54.8366 29.6216 56.499 27.1919 55.9875 26.1689C55.3355 24.8648 52.3419 24.1946 47.6755 26.1689C44.3506 27.5755 39.7044 34.6514 38.2125 38.4452C37.8289 39.2124 36.8059 43.1766 35.7828 45.7342C34.9644 47.7802 32.117 51.105 30.7956 52.5117C26.4989 56.2969 24.9985 59.8007 24.7853 61.0795C22.4324 65.4785 21.5031 79.2808 21.3326 85.632L41.7931 87.806C41.6908 86.9875 42.7735 82.2646 43.3276 80.0054C43.5834 79.4939 44.7343 73.4837 50.1051 70.0309C54.4018 67.2688 57.6925 63.8502 58.8008 62.4862C67.2919 54.6089 69.9262 43.1766 70.1819 38.4452C70.8213 36.3991 69.7983 19.3914 63.5323 15.4272Z" fill="white" stroke="#007AFF" stroke-width="2"/>
<path d="M21.3792 88.6055L41.6651 90.7472" stroke="#007AFF" stroke-width="2"/>
<path d="M23.8901 92.5375L41.2815 94.4556" stroke="#007AFF" stroke-width="2"/>
<path d="M27.4707 96.5017L41.0257 97.9083" stroke="#007AFF" stroke-width="2"/>
<path d="M19.798 64.1486C18.5619 63.0829 15.7571 60.4146 14.4272 58.2662L7.52177 62.1026L4.06907 56.3481L10.9745 52.3838C10.1646 50.1673 8.54479 44.6089 8.54479 40.1076L1 39.4682V32.6907H9.31205C10.5056 29.6642 13.1995 23.2789 14.4272 21.9489L8.54479 16.3223L13.1484 11.5908L19.1586 16.9617C21.4604 15.1714 26.8569 11.463 30.0283 10.9514L28.8774 2.76727L35.6549 2L36.6779 9.54479C39.4486 9.37428 45.7572 9.41691 48.8263 10.9514L52.5347 3.53453L58.4171 6.47572L56.6908 10.5678L54.9644 14.6599" stroke="#007AFF" stroke-width="2"/>
<line x1="70.4368" y1="22.2037" x2="73.9734" y2="19.2566" stroke="#007AFF" stroke-width="2"/>
<line x1="50.72" y1="73.5801" x2="50.8341" y2="78.1823" stroke="#007AFF" stroke-width="2"/>
<line x1="65.5328" y1="66.7439" x2="68.3437" y2="70.3897" stroke="#007AFF" stroke-width="2"/>
<line x1="75.2089" y1="53.7303" x2="79.6068" y2="55.0909" stroke="#007AFF" stroke-width="2"/>
<line x1="76.9627" y1="37.0615" x2="81.5662" y2="37.0768" stroke="#007AFF" stroke-width="2"/>
</svg>
