<svg width="1397" height="385" viewBox="0 0 1397 385" fill="none" xmlns="http://www.w3.org/2000/svg">
<path d="M248.5 58.5C230.479 47.0992 226 62 227 69C227.4 73.4 229.167 79.8333 230 82.5C230 85.5 264.5 142.5 223.5 187.5C182.5 232.5 167.5 211 182.5 172C194.5 140.8 205.5 124.333 209.5 120C214.5 114 221 104.5 219 100.5C216.45 95.401 204.746 92.7806 186.5 100.5C173.5 106 155.333 133.667 149.5 148.5C148 151.5 144 167 140 177C136.8 185 125.667 198 120.5 203.5C103.7 218.3 97.8333 232 97 237C87.8 254.2 84.1667 308.167 83.5 333L163.5 341.5C163.1 338.3 167.333 319.833 169.5 311C170.5 309 175 285.5 196 272C212.8 261.2 225.667 247.833 230 242.5C263.2 211.7 273.5 167 274.5 148.5C277 140.5 273 74 248.5 58.5Z" fill="white" stroke="#007AFF"/>
<path d="M83.6823 344.626L163 353" stroke="#007AFF" stroke-width="8"/>
<path d="M93.5 360L161.5 367.5" stroke="#007AFF" stroke-width="8"/>
<path d="M107.5 375.5L160.5 381" stroke="#007AFF" stroke-width="8"/>
<path d="M77.5 249C72.6667 244.833 61.7 234.4 56.5 226L29.5 241L16 218.5L43 203C39.8333 194.333 33.5 172.6 33.5 155L4 152.5V126H36.5C41.1667 114.167 51.7 89.2 56.5 84L33.5 62L51.5 43.5L75 64.5C84 57.5 105.1 43 117.5 41L113 9L139.5 6L143.5 35.5C154.333 34.8333 179 35 191 41L205.5 12L228.5 23.5L221.75 39.5L215 55.5" stroke="#007AFF" stroke-width="8"/>
<line x1="275.439" y1="84.9271" x2="289.267" y2="73.4038" stroke="#007AFF" stroke-width="8"/>
<line x1="198.495" y1="285.875" x2="198.941" y2="303.869" stroke="#007AFF" stroke-width="8"/>
<line x1="256.394" y1="259.093" x2="267.384" y2="273.348" stroke="#007AFF" stroke-width="8"/>
<line x1="294.182" y1="208.179" x2="311.378" y2="213.498" stroke="#007AFF" stroke-width="8"/>
<line x1="301.013" y1="143" x2="319.013" y2="143.06" stroke="#007AFF" stroke-width="8"/>
<path d="M413.192 245.134C404.876 245.134 397.424 243.784 390.836 241.084C384.248 238.384 378.956 234.388 374.96 229.096C371.072 223.804 369.02 217.432 368.804 209.98H398.288C398.72 214.192 400.178 217.432 402.662 219.7C405.146 221.86 408.386 222.94 412.382 222.94C416.486 222.94 419.726 222.022 422.102 220.186C424.478 218.242 425.666 215.596 425.666 212.248C425.666 209.44 424.694 207.118 422.75 205.282C420.914 203.446 418.592 201.934 415.784 200.746C413.084 199.558 409.196 198.208 404.12 196.696C396.776 194.428 390.782 192.16 386.138 189.892C381.494 187.624 377.498 184.276 374.15 179.848C370.802 175.42 369.128 169.642 369.128 162.514C369.128 151.93 372.962 143.668 380.63 137.728C388.298 131.68 398.288 128.656 410.6 128.656C423.128 128.656 433.226 131.68 440.894 137.728C448.562 143.668 452.666 151.984 453.206 162.676H423.236C423.02 159.004 421.67 156.142 419.186 154.09C416.702 151.93 413.516 150.85 409.628 150.85C406.28 150.85 403.58 151.768 401.528 153.604C399.476 155.332 398.45 157.87 398.45 161.218C398.45 164.89 400.178 167.752 403.634 169.804C407.09 171.856 412.49 174.07 419.834 176.446C427.178 178.93 433.118 181.306 437.654 183.574C442.298 185.842 446.294 189.136 449.642 193.456C452.99 197.776 454.664 203.338 454.664 210.142C454.664 216.622 452.99 222.508 449.642 227.8C446.402 233.092 441.65 237.304 435.386 240.436C429.122 243.568 421.724 245.134 413.192 245.134ZM525.496 245.134C514.804 245.134 504.976 242.65 496.012 237.682C487.156 232.714 480.082 225.802 474.79 216.946C469.606 207.982 467.014 197.938 467.014 186.814C467.014 175.69 469.606 165.7 474.79 156.844C480.082 147.988 487.156 141.076 496.012 136.108C504.976 131.14 514.804 128.656 525.496 128.656C536.188 128.656 545.962 131.14 554.818 136.108C563.782 141.076 570.802 147.988 575.878 156.844C581.062 165.7 583.654 175.69 583.654 186.814C583.654 197.938 581.062 207.982 575.878 216.946C570.694 225.802 563.674 232.714 554.818 237.682C545.962 242.65 536.188 245.134 525.496 245.134ZM525.496 219.862C534.568 219.862 541.804 216.838 547.204 210.79C552.712 204.742 555.466 196.75 555.466 186.814C555.466 176.77 552.712 168.778 547.204 162.838C541.804 156.79 534.568 153.766 525.496 153.766C516.316 153.766 508.972 156.736 503.464 162.676C498.064 168.616 495.364 176.662 495.364 186.814C495.364 196.858 498.064 204.904 503.464 210.952C508.972 216.892 516.316 219.862 525.496 219.862ZM594.367 186.976C594.367 175.744 596.797 165.754 601.657 157.006C606.517 148.15 613.267 141.292 621.907 136.432C630.655 131.464 640.537 128.98 651.553 128.98C665.053 128.98 676.609 132.544 686.221 139.672C695.833 146.8 702.259 156.52 705.499 168.832H675.043C672.775 164.08 669.535 160.462 665.323 157.978C661.219 155.494 656.521 154.252 651.229 154.252C642.697 154.252 635.785 157.222 630.493 163.162C625.201 169.102 622.555 177.04 622.555 186.976C622.555 196.912 625.201 204.85 630.493 210.79C635.785 216.73 642.697 219.7 651.229 219.7C656.521 219.7 661.219 218.458 665.323 215.974C669.535 213.49 672.775 209.872 675.043 205.12H705.499C702.259 217.432 695.833 227.152 686.221 234.28C676.609 241.3 665.053 244.81 651.553 244.81C640.537 244.81 630.655 242.38 621.907 237.52C613.267 232.552 606.517 225.694 601.657 216.946C596.797 208.198 594.367 198.208 594.367 186.976ZM820.96 130.276V244H793.258V197.182H750.166V244H722.464V130.276H750.166V174.826H793.258V130.276H820.96Z" fill="#007AFF"/>
<path d="M961.958 166.888C961.958 173.476 960.446 179.524 957.422 185.032C954.398 190.432 949.754 194.806 943.49 198.154C937.226 201.502 929.45 203.176 920.162 203.176H902.99V244H875.288V130.276H920.162C929.234 130.276 936.902 131.842 943.166 134.974C949.43 138.106 954.128 142.426 957.26 147.934C960.392 153.442 961.958 159.76 961.958 166.888ZM918.056 181.144C923.348 181.144 927.29 179.902 929.882 177.418C932.474 174.934 933.77 171.424 933.77 166.888C933.77 162.352 932.474 158.842 929.882 156.358C927.29 153.874 923.348 152.632 918.056 152.632H902.99V181.144H918.056ZM1030.16 245.134C1019.47 245.134 1009.64 242.65 1000.68 237.682C991.824 232.714 984.75 225.802 979.458 216.946C974.274 207.982 971.682 197.938 971.682 186.814C971.682 175.69 974.274 165.7 979.458 156.844C984.75 147.988 991.824 141.076 1000.68 136.108C1009.64 131.14 1019.47 128.656 1030.16 128.656C1040.86 128.656 1050.63 131.14 1059.49 136.108C1068.45 141.076 1075.47 147.988 1080.55 156.844C1085.73 165.7 1088.32 175.69 1088.32 186.814C1088.32 197.938 1085.73 207.982 1080.55 216.946C1075.36 225.802 1068.34 232.714 1059.49 237.682C1050.63 242.65 1040.86 245.134 1030.16 245.134ZM1030.16 219.862C1039.24 219.862 1046.47 216.838 1051.87 210.79C1057.38 204.742 1060.13 196.75 1060.13 186.814C1060.13 176.77 1057.38 168.778 1051.87 162.838C1046.47 156.79 1039.24 153.766 1030.16 153.766C1020.98 153.766 1013.64 156.736 1008.13 162.676C1002.73 168.616 1000.03 176.662 1000.03 186.814C1000.03 196.858 1002.73 204.904 1008.13 210.952C1013.64 216.892 1020.98 219.862 1030.16 219.862ZM1131.44 130.276V244H1103.73V130.276H1131.44ZM1253.25 244H1225.54L1179.21 173.854V244H1151.51V130.276H1179.21L1225.54 200.746V130.276H1253.25V244ZM1355.14 130.276V152.47H1325.01V244H1297.3V152.47H1267.17V130.276H1355.14Z" fill="white"/>
</svg>
